# xmcd
#
# Track frame offsets:
#	150
#	15458
#	31128
#	47989
#	61904
#	82297
#	98113
#	113909
#	127852
#	142449
#
# Disc length: 2245 seconds
#
# Revision: 0
# Processed by: cddbd v1.5.1PL0 Copyright (c) Steve Scherf et al.
# Submitted via: dBpowerAMP V4.0
#
DISCID=8808c30a
DTITLE=Hank Williams Jr. - Pure Hank
DYEAR=1991
DGENRE=Country
TTITLE0=If It Will It Will
TTITLE1=Angels Are Hard To Find
TTITLE2=Kiss Mother Nature Goodbye
TTITLE3=( I've Got My ) Future On Ice
TTITLE4=Be Careful Who You Love ( Arthur's Song )
TTITLE5=Memphis Blue
TTITLE6=Honky Tonk
TTITLE7=Hollywood Honeys
TTITLE8=Just To Satisfy You
TTITLE9=Simple Man
EXTD=
EXTT0=
EXTT1=
EXTT2=
EXTT3=
EXTT4=
EXTT5=
EXTT6=
EXTT7=
EXTT8=
EXTT9=
PLAYORDER=
